<?xml version="1.0" standalone="no"?>
<!DOCTYPE svg PUBLIC "-//W3C//DTD SVG 20010904//EN"
 "http://www.w3.org/TR/2001/REC-SVG-20010904/DTD/svg10.dtd">
<svg version="1.0" xmlns="http://www.w3.org/2000/svg"
 width="700.000000pt" height="700.000000pt" viewBox="0 0 700.000000 700.000000"
 preserveAspectRatio="xMidYMid meet">
<metadata>
Created by potrace 1.14, written by Peter Selinger 2001-2017
</metadata>
<g transform="translate(0.000000,700.000000) scale(0.100000,-0.100000)"
fill="#000000" stroke="none">
<path d="M3215 6183 l0 -818 -180 -2 c-99 -1 -185 -2 -190 -2 -7 -1 -10 -72
-10 -201 l0 -200 -215 0 -215 0 1 200 c1 197 1 200 -20 201 -31 1 -398 1 -416
0 -13 -1 -15 -30 -15 -198 l0 -198 -215 -3 -215 -2 2 200 c2 199 2 200 -20
201 -191 6 -269 3 -276 -11 -4 -8 -7 -427 -6 -930 l0 -915 460 -5 459 -5 -1
-282 0 -283 114 0 113 0 1 28 c0 15 1 143 1 285 l0 257 507 0 506 0 -1 -272
c0 -150 2 -279 4 -285 3 -9 35 -13 113 -13 80 0 109 3 110 13 1 6 2 134 3 282
l1 270 507 3 506 2 1 -262 c0 -145 0 -273 0 -285 1 -22 4 -23 114 -23 l114 0
0 268 c1 147 2 275 2 284 1 17 32 18 458 20 l457 3 0 924 c1 778 -1 924 -13
929 -11 4 -231 7 -278 3 -8 -1 -11 -53 -11 -183 0 -101 -1 -191 -1 -200 -1
-17 -18 -18 -214 -18 l-213 0 0 196 c1 165 -1 197 -14 203 -11 5 -368 7 -426
2 -7 -1 -10 -66 -10 -198 l0 -198 -214 0 -215 0 0 198 c0 168 -2 197 -15 198
-8 0 -94 1 -190 2 l-175 2 -2 795 c-1 437 -2 805 -2 818 l-1 22 -282 0 -283 0
0 -817z"/>
<path d="M4089 6819 c-2 -66 1 -1152 3 -1155 4 -3 37 7 298 91 80 26 179 57
220 70 103 32 957 305 1120 358 52 17 97 32 100 32 3 1 25 7 50 14 40 12 42
14 25 24 -11 6 -22 12 -25 12 -3 1 -27 8 -55 17 -27 9 -138 44 -245 78 -222
70 -385 123 -580 185 -74 24 -191 61 -260 83 -69 22 -231 74 -360 115 -286 92
-290 93 -291 76z"/>
<path d="M290 3278 c-1 -43 -1 -3261 0 -3271 0 -4 550 -6 1222 -5 l1222 3 -1
653 c0 358 3 653 6 654 3 1 383 2 844 3 l837 2 0 -659 0 -658 1145 0 1145 0 0
33 c1 58 1 3241 1 3260 -1 16 -16 17 -213 15 l-211 -3 -1 -280 -1 -280 -303
-1 -303 -2 1 142 c1 77 1 205 0 284 l0 142 -318 0 -317 0 0 -282 0 -283 -302
-2 -303 -1 0 26 c-1 15 -1 143 -1 285 l0 257 -318 0 -317 0 0 -276 c1 -172 -3
-279 -9 -284 -16 -13 -595 -9 -596 4 -1 6 -2 133 -3 281 l-1 270 -317 3 -317
2 0 -257 c0 -142 0 -270 0 -284 l-1 -26 -302 1 -303 1 0 283 0 282 -317 0
-318 0 0 -283 0 -284 -302 1 -303 1 0 283 0 282 -212 0 -213 0 0 -32z"/>
</g>
</svg>
